<svg width="16" height="16" viewBox="0 0 16 16" fill="none" xmlns="http://www.w3.org/2000/svg">
<path fill-rule="evenodd" clip-rule="evenodd" d="M1.33331 8.00004C1.33331 4.31814 4.31808 1.33337 7.99998 1.33337C11.6819 1.33337 14.6666 4.31814 14.6666 8.00004C14.6666 11.6819 11.6819 14.6667 7.99998 14.6667C4.31808 14.6667 1.33331 11.6819 1.33331 8.00004ZM7.80472 5.52864C7.54437 5.26829 7.12226 5.26829 6.86191 5.52864C6.60156 5.78899 6.60156 6.2111 6.86191 6.47145L8.3905 8.00004L6.86191 9.52864C6.60156 9.78899 6.60156 10.2111 6.86191 10.4714C7.12226 10.7318 7.54437 10.7318 7.80472 10.4714L9.80472 8.47145C10.0651 8.2111 10.0651 7.78899 9.80472 7.52864L7.80472 5.52864Z" fill="#404E71"/>
</svg>
