<svg width="40" height="40" viewBox="0 0 40 40" fill="none" xmlns="http://www.w3.org/2000/svg">
<path fill-rule="evenodd" clip-rule="evenodd" d="M21.1785 27.1548C20.5277 26.5039 19.4724 26.5039 18.8215 27.1548C18.1706 27.8057 18.1706 28.861 18.8215 29.5118L23.8215 34.5118C24.4724 35.1627 25.5277 35.1627 26.1785 34.5118L31.1785 29.5118C31.8294 28.861 31.8294 27.8057 31.1785 27.1548C30.5277 26.5039 29.4724 26.5039 28.8215 27.1548L26.6667 29.3096L26.6667 16.6667C26.6667 15.7462 25.9205 15 25 15C24.0795 15 23.3334 15.7462 23.3334 16.6667L23.3334 29.3096L21.1785 27.1548ZM18.8215 12.8452C19.4724 13.4961 20.5277 13.4961 21.1785 12.8452C21.8294 12.1943 21.8294 11.139 21.1785 10.4882L16.1785 5.48815C15.5277 4.83728 14.4724 4.83728 13.8215 5.48815L8.82151 10.4882C8.17063 11.139 8.17063 12.1943 8.82151 12.8452C9.47238 13.4961 10.5277 13.4961 11.1785 12.8452L13.3334 10.6904L13.3334 23.3333C13.3334 24.2538 14.0795 25 15 25C15.9205 25 16.6667 24.2538 16.6667 23.3333L16.6667 10.6904L18.8215 12.8452Z" fill="#404E71"/>
</svg>
